<mxfile host="Electron" modified="2024-04-11T08:38:20.173Z" agent="Mozilla/5.0 (Windows NT 10.0; Win64; x64) AppleWebKit/537.36 (KHTML, like Gecko) draw.io/23.1.5 Chrome/120.0.6099.109 Electron/28.1.0 Safari/537.36" etag="2cXTAox21w3-cYKATt3-" version="23.1.5" type="device">
  <diagram name="Pagina-1" id="6Av8Gc_3-7IdRDmsvJMG">
    <mxGraphModel dx="1050" dy="629" grid="1" gridSize="10" guides="1" tooltips="1" connect="1" arrows="1" fold="1" page="1" pageScale="1" pageWidth="827" pageHeight="1169" background="none" math="0" shadow="1">
      <root>
        <mxCell id="0" />
        <mxCell id="1" parent="0" />
        <mxCell id="iIqzsNzQ5Ks9BfVmmFDp-2" value="+ get()&lt;br&gt;+ set()&lt;br&gt;+ persona()&lt;br&gt;+accettaProposta()&lt;br&gt;+effettuaProposta()&lt;br&gt;+CRUD()" style="rounded=0;whiteSpace=wrap;html=1;fillColor=default;" parent="1" vertex="1">
          <mxGeometry x="40" y="120" width="200" height="120" as="geometry" />
        </mxCell>
        <mxCell id="iIqzsNzQ5Ks9BfVmmFDp-3" value="- nominativo: String&lt;br&gt;- codiceAuto: String&lt;br&gt;+ elencoOggetti: List" style="rounded=0;whiteSpace=wrap;html=1;fillColor=default;" parent="1" vertex="1">
          <mxGeometry x="40" y="50" width="200" height="70" as="geometry" />
        </mxCell>
        <mxCell id="iIqzsNzQ5Ks9BfVmmFDp-4" value="&lt;b&gt;Persona&lt;/b&gt;" style="rounded=0;whiteSpace=wrap;html=1;fillColor=default;" parent="1" vertex="1">
          <mxGeometry x="40" y="20" width="200" height="30" as="geometry" />
        </mxCell>
        <mxCell id="fj1LXTcimMp08xYE8rOj-4" style="edgeStyle=orthogonalEdgeStyle;rounded=0;orthogonalLoop=1;jettySize=auto;html=1;entryX=0.5;entryY=0;entryDx=0;entryDy=0;exitX=0.5;exitY=1;exitDx=0;exitDy=0;" parent="1" source="iIqzsNzQ5Ks9BfVmmFDp-5" target="iIqzsNzQ5Ks9BfVmmFDp-13" edge="1">
          <mxGeometry relative="1" as="geometry" />
        </mxCell>
        <mxCell id="iIqzsNzQ5Ks9BfVmmFDp-5" value="+ get()&lt;br&gt;+ set()&lt;br&gt;+ oggetto()" style="rounded=0;whiteSpace=wrap;html=1;fillColor=default;" parent="1" vertex="1">
          <mxGeometry x="540" y="120" width="200" height="120" as="geometry" />
        </mxCell>
        <mxCell id="fj1LXTcimMp08xYE8rOj-3" style="edgeStyle=orthogonalEdgeStyle;rounded=0;orthogonalLoop=1;jettySize=auto;html=1;entryX=1;entryY=0.5;entryDx=0;entryDy=0;endArrow=diamondThin;endFill=0;" parent="1" source="iIqzsNzQ5Ks9BfVmmFDp-6" target="iIqzsNzQ5Ks9BfVmmFDp-3" edge="1">
          <mxGeometry relative="1" as="geometry" />
        </mxCell>
        <mxCell id="iIqzsNzQ5Ks9BfVmmFDp-6" value="- nome: String&lt;br&gt;- codice: int&lt;br&gt;- descrizione: String" style="rounded=0;whiteSpace=wrap;html=1;fillColor=default;" parent="1" vertex="1">
          <mxGeometry x="540" y="50" width="200" height="70" as="geometry" />
        </mxCell>
        <mxCell id="iIqzsNzQ5Ks9BfVmmFDp-7" value="&lt;b&gt;Oggetto&lt;/b&gt;" style="rounded=0;whiteSpace=wrap;html=1;fillColor=default;" parent="1" vertex="1">
          <mxGeometry x="540" y="20" width="200" height="30" as="geometry" />
        </mxCell>
        <mxCell id="iIqzsNzQ5Ks9BfVmmFDp-8" value="+ get()&lt;br&gt;+ set()&lt;br&gt;+ proposta()" style="rounded=0;whiteSpace=wrap;html=1;fillColor=default;" parent="1" vertex="1">
          <mxGeometry x="40" y="500" width="200" height="120" as="geometry" />
        </mxCell>
        <mxCell id="iIqzsNzQ5Ks9BfVmmFDp-9" value="- codice: String&lt;br&gt;- mittente: String&lt;br&gt;- destinatario: String" style="rounded=0;whiteSpace=wrap;html=1;fillColor=default;" parent="1" vertex="1">
          <mxGeometry x="40" y="430" width="200" height="70" as="geometry" />
        </mxCell>
        <mxCell id="3kR9-t2Q34D2aEsrE9Fa-1" style="edgeStyle=orthogonalEdgeStyle;rounded=0;orthogonalLoop=1;jettySize=auto;html=1;entryX=0.5;entryY=1;entryDx=0;entryDy=0;" edge="1" parent="1" source="iIqzsNzQ5Ks9BfVmmFDp-10" target="iIqzsNzQ5Ks9BfVmmFDp-2">
          <mxGeometry relative="1" as="geometry" />
        </mxCell>
        <mxCell id="iIqzsNzQ5Ks9BfVmmFDp-10" value="&lt;b&gt;Proposta&lt;/b&gt;" style="rounded=0;whiteSpace=wrap;html=1;fillColor=default;" parent="1" vertex="1">
          <mxGeometry x="40" y="400" width="200" height="30" as="geometry" />
        </mxCell>
        <mxCell id="fj1LXTcimMp08xYE8rOj-5" style="edgeStyle=orthogonalEdgeStyle;rounded=0;orthogonalLoop=1;jettySize=auto;html=1;entryX=1;entryY=0.5;entryDx=0;entryDy=0;" parent="1" source="iIqzsNzQ5Ks9BfVmmFDp-11" target="iIqzsNzQ5Ks9BfVmmFDp-8" edge="1">
          <mxGeometry relative="1" as="geometry" />
        </mxCell>
        <mxCell id="iIqzsNzQ5Ks9BfVmmFDp-11" value="+ get()&lt;br&gt;+ set()&lt;br&gt;+ transazione()" style="rounded=0;whiteSpace=wrap;html=1;fillColor=default;" parent="1" vertex="1">
          <mxGeometry x="540" y="500" width="200" height="120" as="geometry" />
        </mxCell>
        <mxCell id="iIqzsNzQ5Ks9BfVmmFDp-12" value="- codiceUnivoco: String" style="rounded=0;whiteSpace=wrap;html=1;fillColor=default;" parent="1" vertex="1">
          <mxGeometry x="540" y="430" width="200" height="70" as="geometry" />
        </mxCell>
        <mxCell id="iIqzsNzQ5Ks9BfVmmFDp-13" value="&lt;b&gt;Transazione&lt;/b&gt;" style="rounded=0;whiteSpace=wrap;html=1;fillColor=default;" parent="1" vertex="1">
          <mxGeometry x="540" y="400" width="200" height="30" as="geometry" />
        </mxCell>
      </root>
    </mxGraphModel>
  </diagram>
</mxfile>
